<?xml version="1.0" encoding="UTF-8"?>
<!DOCTYPE svg PUBLIC "-//W3C//DTD SVG 1.1//EN" "http://www.w3.org/Graphics/SVG/1.1/DTD/svg11.dtd">
<!-- Creator: CorelDRAW X8 -->
<svg xmlns="http://www.w3.org/2000/svg" xml:space="preserve" width="1500px" height="380px" version="1.1" style="shape-rendering:geometricPrecision; text-rendering:geometricPrecision; image-rendering:optimizeQuality; fill-rule:evenodd; clip-rule:evenodd"
viewBox="0 0 1500 380"
 xmlns:xlink="http://www.w3.org/1999/xlink"
 xmlns:cc="http://creativecommons.org/ns#"
 xmlns:dc="http://purl.org/dc/elements/1.1/"
 xmlns:inkscape="http://www.inkscape.org/namespaces/inkscape"
 xmlns:rdf="http://www.w3.org/1999/02/22-rdf-syntax-ns#"
 xmlns:sodipodi="http://sodipodi.sourceforge.net/DTD/sodipodi-0.dtd"
 xmlns:svg="http://www.w3.org/2000/svg"
 enable-background="new 0 0 512 512"
 baseProfile="tiny">
 <defs>
  <style type="text/css">
   <![CDATA[
    .fil3 {fill:#EE3539}
    .fil2 {fill:#EE3539}
    .fil1 {fill:white}
    .fil0 {fill:#EE3539;fill-rule:nonzero}
   ]]>
  </style>
 </defs>
 <g id="Camada_x0020_1">
  <metadata id="CorelCorpID_0Corel-Layer"/>
  <g id="_2418148284464">
   <polygon class="fil0" points="0,1 1500,1 1500,379 0,379 "/>
   <g>
    <polygon class="fil1" points="1435,51 1500,51 1500,56 1435,56 "/>
    <polygon class="fil1" points="1435,105 1500,105 1500,111 1435,111 "/>
    <polygon class="fil1" points="1435,159 1500,159 1500,166 1435,166 "/>
    <polygon class="fil1" points="1435,214 1500,214 1500,220 1435,220 "/>
    <polygon class="fil1" points="1435,269 1500,269 1500,275 1435,275 "/>
    <polygon class="fil1" points="1435,324 1500,324 1500,329 1435,329 "/>
   </g>
   <g>
    <polygon class="fil1" points="0,51 65,51 65,56 0,56 "/>
    <polygon class="fil1" points="0,105 65,105 65,111 0,111 "/>
    <polygon class="fil1" points="0,159 65,159 65,166 0,166 "/>
    <polygon class="fil1" points="0,214 65,214 65,220 0,220 "/>
    <polygon class="fil1" points="0,269 65,269 65,275 0,275 "/>
    <polygon class="fil1" points="0,324 65,324 65,329 0,329 "/>
   </g>
   <g>
    <polygon class="fil1" points="1391,348 104,348 104,43 1391,43 "/>
    <path class="fil2" d="M92 33l0 326 1305 0 0 -326 -1305 0zm276 102l0 0 -77 0c11,-38 -55,-46 -68,-8 -8,24 27,27 37,31 28,11 67,12 84,38 17,25 9,64 -9,88 -9,14 -25,25 -42,33 -17,9 -44,16 -74,16 -54,0 -113,-8 -108,-85l0 -7 78 1c-5,24 13,39 40,37 15,-1 43,-10 44,-30 1,-18 -26,-27 -40,-31 -38,-11 -95,-18 -92,-68 4,-67 61,-99 124,-99 76,0 117,17 103,84zm230 82l0 0 -122 0 -11 57 133 0 -13 52 -209 0 57 -270 207 0 -10 54 -134 0 -8 53 122 0 -12 54zm188 109l0 0 -46 -205 -1 0 -45 205 -67 0 57 -271 106 0 48 196 1 0 41 -196 69 0 -59 271 -104 0zm355 0l0 0 -8 -51 -108 0 -28 51 -78 0 164 -270 92 0 51 270 -85 0zm190 0l0 0 -77 0 57 -270 77 0 -57 270z"/>
    <polygon class="fil3" points="1114,108 1055,221 1128,221 1115,108 "/>
   </g>
  </g>
 </g>
</svg>
